<svg xmlns="http://www.w3.org/2000/svg" viewBox="0 0 320 400" role="img" aria-label="Referencia visual piloto de Camila">
  <defs>
    <linearGradient id="bg" x1="0" y1="0" x2="1" y2="1"><stop stop-color="#202326"/><stop offset="1" stop-color="#0d0f10"/></linearGradient>
    <linearGradient id="skin" x1="0" y1="0" x2="1" y2="1"><stop stop-color="#efbd9d"/><stop offset=".55" stop-color="#d99a7b"/><stop offset="1" stop-color="#c98568"/></linearGradient>
    <linearGradient id="hair" x1="0" y1="0" x2="1" y2="1"><stop stop-color="#2d1b17"/><stop offset=".48" stop-color="#4a2c23"/><stop offset="1" stop-color="#241613"/></linearGradient>
    <radialGradient id="cheek"><stop stop-color="#d9877f" stop-opacity=".42"/><stop offset="1" stop-color="#d9877f" stop-opacity="0"/></radialGradient>
    <filter id="soft"><feGaussianBlur stdDeviation="3"/></filter>
  </defs>
  <rect width="320" height="400" fill="url(#bg)"/>
  <circle cx="258" cy="54" r="110" fill="#f3b51b" opacity=".035"/>
  <path d="M47 400c9-74 36-113 82-128h62c49 14 76 54 83 128z" fill="#121416"/>
  <path d="M121 272c6 31 73 31 80 0l-6-57h-68z" fill="url(#skin)"/>
  <path d="M78 177c0-93 42-136 83-136 58 0 87 52 82 139-2 48-23 108-82 108-56 0-83-61-83-111z" fill="url(#skin)"/>
  <ellipse cx="110" cy="201" rx="34" ry="29" fill="url(#cheek)"/>
  <ellipse cx="212" cy="201" rx="34" ry="29" fill="url(#cheek)"/>
  <path d="M73 187c-9-78 20-143 83-151 63-8 104 51 96 145-12-26-13-61-28-83-13-19-33-31-58-34-37 10-59 44-68 82-7 31-4 81 8 116-18-18-31-44-33-75z" fill="url(#hair)"/>
  <path d="M86 151c-20 60-14 152 7 207l34 12c-18-63-26-132-12-200 6-29 17-55 34-78-31 10-52 28-63 59z" fill="#362019" opacity=".95"/>
  <path d="M232 140c17 54 10 155-13 220l-29 9c19-62 28-133 16-199-6-33-16-60-30-80 29 5 47 21 56 50z" fill="#3f251d" opacity=".96"/>
  <path d="M105 157c14-9 28-10 43-3" fill="none" stroke="#33231f" stroke-width="6" stroke-linecap="round"/>
  <path d="M176 154c15-7 29-4 40 5" fill="none" stroke="#33231f" stroke-width="6" stroke-linecap="round"/>
  <ellipse cx="128" cy="171" rx="16" ry="10" fill="#f7eee7"/>
  <ellipse cx="195" cy="171" rx="16" ry="10" fill="#f7eee7"/>
  <circle cx="130" cy="172" r="7" fill="#5d3a21"/><circle cx="193" cy="172" r="7" fill="#5d3a21"/>
  <circle cx="130" cy="172" r="3" fill="#141414"/><circle cx="193" cy="172" r="3" fill="#141414"/>
  <circle cx="127" cy="169" r="1.5" fill="#fff"/><circle cx="190" cy="169" r="1.5" fill="#fff"/>
  <path d="M162 174c-4 17-8 30-4 38 5 5 13 5 19 1" fill="none" stroke="#b66f5c" stroke-width="3.3" stroke-linecap="round"/>
  <path d="M132 230c19 13 40 13 59-1" fill="none" stroke="#a85f5b" stroke-width="5" stroke-linecap="round"/>
  <path d="M137 231c16 7 34 7 48-1" fill="none" stroke="#e09a98" stroke-width="2" stroke-linecap="round" opacity=".8"/>
  <path d="M69 126c17-55 55-91 103-91 47 0 77 28 89 75-29-33-67-47-111-40-33 6-61 24-81 56z" fill="#241513"/>
  <path d="M82 118c26-37 61-54 105-47 29 5 51 19 67 42-19-45-51-68-94-68-39 0-65 23-78 73z" fill="#4b2b21" opacity=".55"/>
  <path d="M65 400c7-61 35-100 77-118 11 15 26 22 44 22s33-7 44-22c44 17 72 56 79 118z" fill="#111315"/>
  <path d="M117 285c11 17 26 27 44 27 20 0 35-9 45-27" fill="none" stroke="#f3b51b" stroke-width="2" opacity=".2"/>
</svg>